<svg width="22" height="22" viewBox="0 0 22 22" fill="none" xmlns="http://www.w3.org/2000/svg">
<path d="M19.2969 21.4681L12.1003 14.2701C8.89883 16.5462 4.48735 15.9895 1.95175 12.9894C-0.583849 9.98931 -0.397667 5.54674 2.38006 2.76934C5.15705 -0.00928789 9.60005 -0.196276 12.6007 2.33919C15.6013 4.87466 16.1584 9.28656 13.8821 12.4883L21.0788 19.6862L19.2982 21.4668L19.2969 21.4681ZM7.72184 3.07406C5.3339 3.07352 3.27374 4.74974 2.78866 7.08788C2.30357 9.42602 3.52688 11.7835 5.71795 12.7329C7.90902 13.6823 10.4656 12.9628 11.8399 11.01C13.2142 9.05716 13.0284 6.40773 11.3951 4.66578L12.1569 5.42134L11.2981 4.56504L11.283 4.54993C10.3408 3.60193 9.05841 3.07046 7.72184 3.07406Z" fill="white"/>
</svg>
